<svg width="120" height="120" viewBox="0 0 256 256" fill="none" xmlns="http://www.w3.org/2000/svg" role="img" aria-label="DaisyClaw">
  <defs>
    <radialGradient id="dc-bg" cx="50%" cy="36%" r="78%">
      <stop offset="0%" stop-color="#4f93f7"/>
      <stop offset="100%" stop-color="#2563eb"/>
    </radialGradient>
    <linearGradient id="dc-petal" x1="50%" y1="0%" x2="50%" y2="100%">
      <stop offset="0%" stop-color="#ffffff"/>
      <stop offset="100%" stop-color="#e6eefc"/>
    </linearGradient>
    <radialGradient id="dc-center" cx="50%" cy="40%" r="68%">
      <stop offset="0%" stop-color="#ffd766"/>
      <stop offset="100%" stop-color="#f5a300"/>
    </radialGradient>
  </defs>
  <rect x="8" y="8" width="240" height="240" rx="56" fill="url(#dc-bg)"/>
  <g fill="url(#dc-petal)" stroke="#cdddf8" stroke-width="1.5">
    <g transform="rotate(0 128 128)"><ellipse cx="128" cy="70" rx="18" ry="42"/></g>
    <g transform="rotate(30 128 128)"><ellipse cx="128" cy="70" rx="18" ry="42"/></g>
    <g transform="rotate(60 128 128)"><ellipse cx="128" cy="70" rx="18" ry="42"/></g>
    <g transform="rotate(90 128 128)"><ellipse cx="128" cy="70" rx="18" ry="42"/></g>
    <g transform="rotate(120 128 128)"><ellipse cx="128" cy="70" rx="18" ry="42"/></g>
    <g transform="rotate(150 128 128)"><ellipse cx="128" cy="70" rx="18" ry="42"/></g>
    <g transform="rotate(180 128 128)"><ellipse cx="128" cy="70" rx="18" ry="42"/></g>
    <g transform="rotate(210 128 128)"><ellipse cx="128" cy="70" rx="18" ry="42"/></g>
    <g transform="rotate(240 128 128)"><ellipse cx="128" cy="70" rx="18" ry="42"/></g>
    <g transform="rotate(270 128 128)"><ellipse cx="128" cy="70" rx="18" ry="42"/></g>
    <g transform="rotate(300 128 128)"><ellipse cx="128" cy="70" rx="18" ry="42"/></g>
    <g transform="rotate(330 128 128)"><ellipse cx="128" cy="70" rx="18" ry="42"/></g>
  </g>
  <circle cx="128" cy="128" r="30" fill="url(#dc-center)"/>
  <circle cx="128" cy="128" r="30" fill="none" stroke="#d98c00" stroke-width="2" opacity="0.45"/>
</svg>
